<svg fill="#fff" class="svg-icon" xmlns="http://www.w3.org/2000/svg" xmlns:xlink="http://www.w3.org/1999/xlink"><defs><style>
    .sprite-symbol-usage {display: none;}
    .sprite-symbol-usage:target {display: inline;}
  </style><symbol viewBox="0 0 16 16" fill="none" id="email_sprite">
<path d="M8.0006 1.49951C6.83842 1.4994 5.69746 1.81089 4.69656 2.40154C3.69566 2.99218 2.87142 3.84038 2.30969 4.85779C1.74796 5.8752 1.46929 7.02461 1.50269 8.18631C1.53608 9.34801 1.88034 10.4795 2.49959 11.463C3.11885 12.4464 3.99046 13.2459 5.02364 13.778C6.05682 14.3102 7.21379 14.5556 8.37404 14.4887C9.5343 14.4219 10.6554 14.0451 11.6206 13.3978C12.5858 12.7504 13.3598 11.8561 13.8619 10.808C13.5064 10.9398 13.1297 11.0047 12.7506 10.9995C11.6077 10.9995 10.9678 10.4992 10.6324 10.0795C10.5542 9.98144 10.4837 9.87761 10.4213 9.76888C10.0638 10.2586 9.56644 10.6285 8.99463 10.8299C8.42282 11.0313 7.8034 11.0548 7.21799 10.8972C6.63257 10.7396 6.10862 10.4084 5.71515 9.94722C5.32169 9.486 5.07717 8.91641 5.01381 8.31348C4.95045 7.71055 5.07123 7.10257 5.36022 6.56964C5.64922 6.0367 6.09288 5.60381 6.63276 5.328C7.17263 5.05219 7.78339 4.94639 8.38458 5.02455C8.98578 5.1027 9.54919 5.36114 10.0006 5.76582V5.49951C10.0006 5.3669 10.0533 5.23973 10.147 5.14596C10.2408 5.05219 10.368 4.99951 10.5006 4.99951C10.6332 4.99951 10.7604 5.05219 10.8542 5.14596C10.9479 5.23973 11.0006 5.3669 11.0006 5.49951V7.99951C11.0006 8.91193 11.3042 9.99951 12.7506 9.99951C14.1472 9.99951 14.4783 8.98556 14.4994 8.09437C14.4998 8.06276 14.5006 8.03122 14.5006 7.99951C14.4986 6.2762 13.8132 4.62404 12.5946 3.40547C11.3761 2.18691 9.72391 1.50146 8.0006 1.49951Z" fill="url(#email_sprite_paint0_linear_602_3801)" />
<path d="M8 9.99951C9.10457 9.99951 10 9.10408 10 7.99951C10 6.89494 9.10457 5.99951 8 5.99951C6.89543 5.99951 6 6.89494 6 7.99951C6 9.10408 6.89543 9.99951 8 9.99951Z" fill="url(#email_sprite_paint1_linear_602_3801)" />
<defs>


</defs>
</symbol><linearGradient id="email_sprite_paint0_linear_602_3801" x1="1.5" y1="14.4995" x2="15.1094" y2="13.8274" gradientUnits="userSpaceOnUse">
<stop stop-color="#D4AD5D" />
<stop offset="1" stop-color="#9D7637" />
</linearGradient><linearGradient id="email_sprite_paint1_linear_602_3801" x1="6" y1="9.99951" x2="10.1873" y2="9.79273" gradientUnits="userSpaceOnUse">
<stop stop-color="#D4AD5D" />
<stop offset="1" stop-color="#9D7637" />
</linearGradient><symbol viewBox="0 0 14 14" fill="none" id="info_sprite">
<g opacity="0.6">
<path d="M7 12.25C9.8995 12.25 12.25 9.8995 12.25 7C12.25 4.10051 9.8995 1.75 7 1.75C4.10051 1.75 1.75 4.10051 1.75 7C1.75 9.8995 4.10051 12.25 7 12.25Z" stroke="white" stroke-linecap="round" stroke-linejoin="round" />
<path d="M6.5625 6.5625H7V9.625H7.4375" stroke="white" stroke-linecap="round" stroke-linejoin="round" />
<path d="M6.89062 5.25C7.25306 5.25 7.54688 4.95619 7.54688 4.59375C7.54688 4.23131 7.25306 3.9375 6.89062 3.9375C6.52819 3.9375 6.23438 4.23131 6.23438 4.59375C6.23438 4.95619 6.52819 5.25 6.89062 5.25Z" fill="white" />
</g>
</symbol><symbol viewBox="0 0 16 16" fill="none" id="map_sprite">
<path d="M8 1C6.54184 1.00173 5.1439 1.58175 4.11282 2.61282C3.08175 3.6439 2.50173 5.04184 2.5 6.5C2.5 11.2061 7.5 14.7607 7.71289 14.9097C7.79709 14.9685 7.8973 15 8 15C8.1027 15 8.20291 14.9685 8.28711 14.9097C8.5 14.7607 13.5 11.2061 13.5 6.5C13.4983 5.04184 12.9183 3.6439 11.8872 2.61282C10.8561 1.58175 9.45816 1.00173 8 1ZM8.00037 4.50018C8.39593 4.50018 8.78261 4.61748 9.11151 4.83724C9.4404 5.057 9.69675 5.36936 9.84813 5.73481C9.9995 6.10027 10.0391 6.5024 9.96194 6.89036C9.88477 7.27832 9.69428 7.63469 9.41458 7.91439C9.13487 8.1941 8.77851 8.38458 8.39055 8.46175C8.00258 8.53892 7.60045 8.49932 7.235 8.34794C6.86955 8.19657 6.55719 7.94022 6.33743 7.61132C6.11766 7.28242 6.00037 6.89574 6.00037 6.50018C6.00036 6.23754 6.05208 5.97746 6.15259 5.73481C6.2531 5.49215 6.40042 5.27167 6.58614 5.08595C6.77185 4.90023 6.99234 4.75291 7.23499 4.65241C7.47764 4.5519 7.73772 4.50017 8.00037 4.50018Z" fill="url(#map_sprite_paint0_linear_602_3795)" />
<defs>

</defs>
</symbol><linearGradient id="map_sprite_paint0_linear_602_3795" x1="2.5" y1="15" x2="14.0259" y2="14.5528" gradientUnits="userSpaceOnUse">
<stop stop-color="#D4AD5D" />
<stop offset="1" stop-color="#9D7637" />
</linearGradient><symbol viewBox="0 0 60 60" fill="none" id="next-arrow_sprite">
<g opacity="0.12">
<path d="M9.375 30H50.625" stroke="white" stroke-width="4" stroke-linecap="round" stroke-linejoin="round" />
<path d="M33.75 13.125L50.625 30L33.75 46.875" stroke="white" stroke-width="4" stroke-linecap="round" stroke-linejoin="round" />
</g>
</symbol><symbol viewBox="0 0 16 16" fill="none" id="phone_sprite">
<path d="M13.8732 9.90167L10.9459 8.64709C10.793 8.5813 10.6261 8.5548 10.4604 8.57003C10.2947 8.58525 10.1355 8.64171 9.99719 8.73425L8.432 9.77759C7.47541 9.31233 6.70117 8.5415 6.23169 7.58698L6.23181 7.58685L7.27148 5.99823C7.36198 5.86031 7.41689 5.70212 7.43129 5.53779C7.44569 5.37346 7.41913 5.20813 7.354 5.05658L6.09827 2.12671C6.01279 1.92783 5.86519 1.76199 5.67757 1.65402C5.48994 1.54605 5.2724 1.50175 5.0575 1.52777C4.21304 1.63635 3.43699 2.04864 2.87432 2.68763C2.31166 3.32662 2.00086 4.14859 2 5C2 9.96265 6.03735 14 11 14C11.8514 13.9991 12.6734 13.6883 13.3124 13.1257C13.9514 12.563 14.3637 11.7869 14.4722 10.9424C14.4982 10.7275 14.4538 10.51 14.3459 10.3224C14.2379 10.1348 14.0721 9.98719 13.8732 9.90167Z" fill="url(#phone_sprite_paint0_linear_602_3789)" />
<defs>

</defs>
</symbol><linearGradient id="phone_sprite_paint0_linear_602_3789" x1="2" y1="14" x2="15.0639" y2="13.3549" gradientUnits="userSpaceOnUse">
<stop stop-color="#D4AD5D" />
<stop offset="1" stop-color="#9D7637" />
</linearGradient><symbol viewBox="0 0 24 24" fill="none" id="play_sprite">
<path d="M21.3844 11.3625L7.89375 3.11253C7.78018 3.04248 7.64998 3.00399 7.51658 3.00104C7.38318 2.99809 7.25141 3.03078 7.13486 3.09574C7.0183 3.16071 6.92119 3.25559 6.85354 3.3706C6.78589 3.48562 6.75015 3.61659 6.75 3.75003V20.25C6.75015 20.3835 6.78589 20.5144 6.85354 20.6295C6.92119 20.7445 7.0183 20.8394 7.13486 20.9043C7.25141 20.9693 7.38318 21.002 7.51658 20.999C7.64998 20.9961 7.78018 20.9576 7.89375 20.8875L21.3844 12.6375C21.4952 12.572 21.5869 12.4788 21.6507 12.367C21.7145 12.2552 21.748 12.1287 21.748 12C21.748 11.8713 21.7145 11.7449 21.6507 11.6331C21.5869 11.5213 21.4952 11.428 21.3844 11.3625V11.3625Z" stroke="white" stroke-linecap="round" stroke-linejoin="round" />
</symbol></defs><use id="email_sprite-usage" xlink:href="#email_sprite" class="sprite-symbol-usage" /><use id="info_sprite-usage" xlink:href="#info_sprite" class="sprite-symbol-usage" /><use id="map_sprite-usage" xlink:href="#map_sprite" class="sprite-symbol-usage" /><use id="next-arrow_sprite-usage" xlink:href="#next-arrow_sprite" class="sprite-symbol-usage" /><use id="phone_sprite-usage" xlink:href="#phone_sprite" class="sprite-symbol-usage" /><use id="play_sprite-usage" xlink:href="#play_sprite" class="sprite-symbol-usage" /></svg>