<svg fill="#fff" class="svg-icon" xmlns="http://www.w3.org/2000/svg" xmlns:xlink="http://www.w3.org/1999/xlink"><defs><style>
    .sprite-symbol-usage {display: none;}
    .sprite-symbol-usage:target {display: inline;}
  </style><symbol viewBox="0 0 16 16" fill="none" id="back_sprite">
<g opacity="0.8">
<path d="M13.5 8H2.5" stroke="white" stroke-linecap="round" stroke-linejoin="round" />
<path d="M7 3.5L2.5 8L7 12.5" stroke="white" stroke-linecap="round" stroke-linejoin="round" />
</g>
</symbol><symbol viewBox="0 0 24 24" fill="none" id="close_sprite">
<path d="M18.75 5.25L5.25 18.75" stroke="#414141" stroke-width="2" stroke-linecap="round" stroke-linejoin="round" />
<path d="M18.75 18.75L5.25 5.25" stroke="#414141" stroke-width="2" stroke-linecap="round" stroke-linejoin="round" />
</symbol><symbol viewBox="0 0 20 20" fill="none" id="email_sprite">
<path d="M10.0007 1.875C8.54802 1.87487 7.12183 2.26423 5.8707 3.00253C4.61958 3.74084 3.58928 4.80109 2.88712 6.07285C2.18495 7.34461 1.83661 8.78137 1.87836 10.2335C1.92011 11.6856 2.35042 13.1 3.12449 14.3293C3.89856 15.5586 4.98807 16.5579 6.27955 17.2231C7.57103 17.8884 9.01724 18.1951 10.4676 18.1115C11.9179 18.0279 13.3193 17.557 14.5257 16.7478C15.7322 15.9386 16.6997 14.8208 17.3274 13.5107C16.883 13.6753 16.4121 13.7564 15.9382 13.75C14.5096 13.75 13.7098 13.1246 13.2905 12.5999C13.1928 12.4774 13.1046 12.3476 13.0266 12.2117C12.5798 12.8238 11.9581 13.2862 11.2433 13.538C10.5285 13.7897 9.75425 13.8191 9.02248 13.6221C8.29071 13.4252 7.63577 13.0112 7.14394 12.4346C6.65211 11.8581 6.34646 11.1461 6.26726 10.3925C6.18807 9.6388 6.33904 8.87882 6.70028 8.21266C7.06152 7.54649 7.6161 7.00538 8.29094 6.66061C8.96579 6.31585 9.72924 6.1836 10.4807 6.28129C11.2322 6.37899 11.9365 6.70204 12.5007 7.20789V6.875C12.5007 6.70924 12.5666 6.55027 12.6838 6.43306C12.801 6.31585 12.96 6.25 13.1257 6.25C13.2915 6.25 13.4505 6.31585 13.5677 6.43306C13.6849 6.55027 13.7507 6.70924 13.7507 6.875V10C13.7507 11.1405 14.1302 12.5 15.9382 12.5C17.684 12.5 18.0978 11.2326 18.1242 10.1186C18.1248 10.0791 18.1257 10.0396 18.1257 10C18.1233 7.84586 17.2665 5.78065 15.7433 4.25745C14.2201 2.73425 12.1549 1.87744 10.0007 1.875Z" fill="#C29442" />
<path d="M10 12.5C11.3807 12.5 12.5 11.3807 12.5 10C12.5 8.61929 11.3807 7.5 10 7.5C8.61929 7.5 7.5 8.61929 7.5 10C7.5 11.3807 8.61929 12.5 10 12.5Z" fill="#C29442" />
</symbol><symbol viewBox="0 0 14 14" fill="none" id="info_sprite">
<g opacity="1">
<path d="M7 12.25C9.8995 12.25 12.25 9.8995 12.25 7C12.25 4.10051 9.8995 1.75 7 1.75C4.10051 1.75 1.75 4.10051 1.75 7C1.75 9.8995 4.10051 12.25 7 12.25Z" stroke="currentColor" stroke-linecap="round" stroke-linejoin="round" />
<path d="M6.5625 6.5625H7V9.625H7.4375" stroke="currentColor" stroke-linecap="round" stroke-linejoin="round" />
<path d="M6.89062 5.25C7.25306 5.25 7.54688 4.95619 7.54688 4.59375C7.54688 4.23131 7.25306 3.9375 6.89062 3.9375C6.52819 3.9375 6.23438 4.23131 6.23438 4.59375C6.23438 4.95619 6.52819 5.25 6.89062 5.25Z" fill="currentColor" />
</g>
</symbol><symbol viewBox="0 0 60 60" fill="none" id="next-arrow_sprite">
<g opacity="0.12">
<path d="M9.375 30H50.625" stroke="white" stroke-width="4" stroke-linecap="round" stroke-linejoin="round" />
<path d="M33.75 13.125L50.625 30L33.75 46.875" stroke="white" stroke-width="4" stroke-linecap="round" stroke-linejoin="round" />
</g>
</symbol><symbol viewBox="0 0 17 17" fill="none" id="phone_sprite">
<path d="M15.3415 11.3771L11.6823 9.80887C11.4913 9.72662 11.2827 9.69351 11.0756 9.71254C10.8684 9.73157 10.6694 9.80214 10.4965 9.91782L8.54001 11.222C7.34426 10.6404 6.37647 9.67688 5.78961 8.48372L5.78976 8.48357L7.08935 6.49779C7.20248 6.32539 7.27111 6.12765 7.28911 5.92224C7.30711 5.71683 7.27392 5.51016 7.1925 5.32072L5.62283 1.65839C5.51599 1.40979 5.33149 1.20249 5.09696 1.06752C4.86243 0.932557 4.5905 0.877191 4.32187 0.909714C3.2663 1.04543 2.29623 1.5608 1.5929 2.35953C0.889572 3.15827 0.501079 4.18574 0.5 5.25C0.5 11.4533 5.54669 16.5 11.75 16.5C12.8143 16.4989 13.8418 16.1104 14.6405 15.4071C15.4392 14.7037 15.9546 13.7336 16.0903 12.6781C16.1227 12.4094 16.0673 12.1375 15.9323 11.903C15.7974 11.6685 15.5901 11.484 15.3415 11.3771Z" fill="#C29442" />
</symbol><symbol viewBox="0 0 14 18" fill="none" id="pin_sprite">
<path d="M7 0.25C5.1773 0.252163 3.42987 0.977185 2.14103 2.26603C0.852185 3.55487 0.127163 5.3023 0.125 7.125C0.125 13.0076 6.375 17.4509 6.64111 17.6371C6.74636 17.7106 6.87163 17.75 7 17.75C7.12837 17.75 7.25364 17.7106 7.35889 17.6371C7.625 17.4509 13.875 13.0076 13.875 7.125C13.8728 5.3023 13.1478 3.55487 11.859 2.26603C10.5701 0.977185 8.8227 0.252162 7 0.25ZM7.00046 4.62523C7.49491 4.62523 7.97826 4.77185 8.38938 5.04655C8.80051 5.32126 9.12094 5.7117 9.31016 6.16852C9.49938 6.62533 9.54888 7.128 9.45242 7.61295C9.35596 8.0979 9.11786 8.54336 8.76822 8.89299C8.41859 9.24263 7.97314 9.48073 7.48818 9.57719C7.00323 9.67365 6.50056 9.62414 6.04375 9.43493C5.58693 9.24571 5.19649 8.92527 4.92178 8.51415C4.64708 8.10303 4.50046 7.61968 4.50046 7.12523C4.50045 6.79692 4.56511 6.47183 4.69074 6.16851C4.81637 5.86519 5.00052 5.58959 5.23267 5.35744C5.46482 5.12529 5.74042 4.94114 6.04374 4.81551C6.34706 4.68988 6.67215 4.62522 7.00046 4.62523Z" fill="#C29442" />
</symbol><symbol viewBox="0 0 24 24" fill="none" id="play_sprite">
<path d="M21.3844 11.3625L7.89375 3.11253C7.78018 3.04248 7.64998 3.00399 7.51658 3.00104C7.38318 2.99809 7.25141 3.03078 7.13486 3.09574C7.0183 3.16071 6.92119 3.25559 6.85354 3.3706C6.78589 3.48562 6.75015 3.61659 6.75 3.75003V20.25C6.75015 20.3835 6.78589 20.5144 6.85354 20.6295C6.92119 20.7445 7.0183 20.8394 7.13486 20.9043C7.25141 20.9693 7.38318 21.002 7.51658 20.999C7.64998 20.9961 7.78018 20.9576 7.89375 20.8875L21.3844 12.6375C21.4952 12.572 21.5869 12.4788 21.6507 12.367C21.7145 12.2552 21.748 12.1287 21.748 12C21.748 11.8713 21.7145 11.7449 21.6507 11.6331C21.5869 11.5213 21.4952 11.428 21.3844 11.3625V11.3625Z" stroke="white" stroke-linecap="round" stroke-linejoin="round" />
</symbol><symbol viewBox="0 0 22 22" fill="none" id="plus_sprite">
<path d="M1.625 11H20.375" stroke="#141414" stroke-width="2" stroke-linecap="round" stroke-linejoin="round" />
<path d="M11 1.625V20.375" stroke="#141414" stroke-width="2" stroke-linecap="round" stroke-linejoin="round" />
</symbol><symbol viewBox="0 0 20 20" fill="none" id="route_sprite">
<path d="M15.625 17.5C16.6605 17.5 17.5 16.6605 17.5 15.625C17.5 14.5895 16.6605 13.75 15.625 13.75C14.5895 13.75 13.75 14.5895 13.75 15.625C13.75 16.6605 14.5895 17.5 15.625 17.5Z" stroke="#121212" stroke-width="1.5" stroke-linecap="round" stroke-linejoin="round" />
<path d="M5.625 4.375H13.125C13.788 4.375 14.4239 4.63839 14.8928 5.10723C15.3616 5.57607 15.625 6.21196 15.625 6.875C15.625 7.53804 15.3616 8.17393 14.8928 8.64277C14.4239 9.11161 13.788 9.375 13.125 9.375H5.625C4.7962 9.375 4.00134 9.70424 3.41529 10.2903C2.82924 10.8763 2.5 11.6712 2.5 12.5C2.5 13.3288 2.82924 14.1237 3.41529 14.7097C4.00134 15.2958 4.7962 15.625 5.625 15.625H13.75" stroke="#121212" stroke-width="1.5" stroke-linecap="round" stroke-linejoin="round" />
</symbol></defs><use id="back_sprite-usage" xlink:href="#back_sprite" class="sprite-symbol-usage" /><use id="close_sprite-usage" xlink:href="#close_sprite" class="sprite-symbol-usage" /><use id="email_sprite-usage" xlink:href="#email_sprite" class="sprite-symbol-usage" /><use id="info_sprite-usage" xlink:href="#info_sprite" class="sprite-symbol-usage" /><use id="next-arrow_sprite-usage" xlink:href="#next-arrow_sprite" class="sprite-symbol-usage" /><use id="phone_sprite-usage" xlink:href="#phone_sprite" class="sprite-symbol-usage" /><use id="pin_sprite-usage" xlink:href="#pin_sprite" class="sprite-symbol-usage" /><use id="play_sprite-usage" xlink:href="#play_sprite" class="sprite-symbol-usage" /><use id="plus_sprite-usage" xlink:href="#plus_sprite" class="sprite-symbol-usage" /><use id="route_sprite-usage" xlink:href="#route_sprite" class="sprite-symbol-usage" /></svg>