<svg width="16" height="16" viewBox="0 0 16 16" fill="none" xmlns="http://www.w3.org/2000/svg">
<path d="M8.0006 1.49951C6.83842 1.4994 5.69746 1.81089 4.69656 2.40154C3.69566 2.99218 2.87142 3.84038 2.30969 4.85779C1.74796 5.8752 1.46929 7.02461 1.50269 8.18631C1.53608 9.34801 1.88034 10.4795 2.49959 11.463C3.11885 12.4464 3.99046 13.2459 5.02364 13.778C6.05682 14.3102 7.21379 14.5556 8.37404 14.4887C9.5343 14.4219 10.6554 14.0451 11.6206 13.3978C12.5858 12.7504 13.3598 11.8561 13.8619 10.808C13.5064 10.9398 13.1297 11.0047 12.7506 10.9995C11.6077 10.9995 10.9678 10.4992 10.6324 10.0795C10.5542 9.98144 10.4837 9.87761 10.4213 9.76888C10.0638 10.2586 9.56644 10.6285 8.99463 10.8299C8.42282 11.0313 7.8034 11.0548 7.21799 10.8972C6.63257 10.7396 6.10862 10.4084 5.71515 9.94722C5.32169 9.486 5.07717 8.91641 5.01381 8.31348C4.95045 7.71055 5.07123 7.10257 5.36022 6.56964C5.64922 6.0367 6.09288 5.60381 6.63276 5.328C7.17263 5.05219 7.78339 4.94639 8.38458 5.02455C8.98578 5.1027 9.54919 5.36114 10.0006 5.76582V5.49951C10.0006 5.3669 10.0533 5.23973 10.147 5.14596C10.2408 5.05219 10.368 4.99951 10.5006 4.99951C10.6332 4.99951 10.7604 5.05219 10.8542 5.14596C10.9479 5.23973 11.0006 5.3669 11.0006 5.49951V7.99951C11.0006 8.91193 11.3042 9.99951 12.7506 9.99951C14.1472 9.99951 14.4783 8.98556 14.4994 8.09437C14.4998 8.06276 14.5006 8.03122 14.5006 7.99951C14.4986 6.2762 13.8132 4.62404 12.5946 3.40547C11.3761 2.18691 9.72391 1.50146 8.0006 1.49951Z" fill="url(#paint0_linear_602_3801)"/>
<path d="M8 9.99951C9.10457 9.99951 10 9.10408 10 7.99951C10 6.89494 9.10457 5.99951 8 5.99951C6.89543 5.99951 6 6.89494 6 7.99951C6 9.10408 6.89543 9.99951 8 9.99951Z" fill="url(#paint1_linear_602_3801)"/>
<defs>
<linearGradient id="paint0_linear_602_3801" x1="1.5" y1="14.4995" x2="15.1094" y2="13.8274" gradientUnits="userSpaceOnUse">
<stop stop-color="#D4AD5D"/>
<stop offset="1" stop-color="#9D7637"/>
</linearGradient>
<linearGradient id="paint1_linear_602_3801" x1="6" y1="9.99951" x2="10.1873" y2="9.79273" gradientUnits="userSpaceOnUse">
<stop stop-color="#D4AD5D"/>
<stop offset="1" stop-color="#9D7637"/>
</linearGradient>
</defs>
</svg>
