<svg width="20" height="20" viewBox="0 0 20 20" fill="none" xmlns="http://www.w3.org/2000/svg">
<path d="M10.0007 1.875C8.54802 1.87487 7.12183 2.26423 5.8707 3.00253C4.61958 3.74084 3.58928 4.80109 2.88712 6.07285C2.18495 7.34461 1.83661 8.78137 1.87836 10.2335C1.92011 11.6856 2.35042 13.1 3.12449 14.3293C3.89856 15.5586 4.98807 16.5579 6.27955 17.2231C7.57103 17.8884 9.01724 18.1951 10.4676 18.1115C11.9179 18.0279 13.3193 17.557 14.5257 16.7478C15.7322 15.9386 16.6997 14.8208 17.3274 13.5107C16.883 13.6753 16.4121 13.7564 15.9382 13.75C14.5096 13.75 13.7098 13.1246 13.2905 12.5999C13.1928 12.4774 13.1046 12.3476 13.0266 12.2117C12.5798 12.8238 11.9581 13.2862 11.2433 13.538C10.5285 13.7897 9.75425 13.8191 9.02248 13.6221C8.29071 13.4252 7.63577 13.0112 7.14394 12.4346C6.65211 11.8581 6.34646 11.1461 6.26726 10.3925C6.18807 9.6388 6.33904 8.87882 6.70028 8.21266C7.06152 7.54649 7.6161 7.00538 8.29094 6.66061C8.96579 6.31585 9.72924 6.1836 10.4807 6.28129C11.2322 6.37899 11.9365 6.70204 12.5007 7.20789V6.875C12.5007 6.70924 12.5666 6.55027 12.6838 6.43306C12.801 6.31585 12.96 6.25 13.1257 6.25C13.2915 6.25 13.4505 6.31585 13.5677 6.43306C13.6849 6.55027 13.7507 6.70924 13.7507 6.875V10C13.7507 11.1405 14.1302 12.5 15.9382 12.5C17.684 12.5 18.0978 11.2326 18.1242 10.1186C18.1248 10.0791 18.1257 10.0396 18.1257 10C18.1233 7.84586 17.2665 5.78065 15.7433 4.25745C14.2201 2.73425 12.1549 1.87744 10.0007 1.875Z" fill="#C29442"/>
<path d="M10 12.5C11.3807 12.5 12.5 11.3807 12.5 10C12.5 8.61929 11.3807 7.5 10 7.5C8.61929 7.5 7.5 8.61929 7.5 10C7.5 11.3807 8.61929 12.5 10 12.5Z" fill="#C29442"/>
</svg>
