<svg width="16" height="16" viewBox="0 0 16 16" fill="none" xmlns="http://www.w3.org/2000/svg">
<path d="M8 1C6.54184 1.00173 5.1439 1.58175 4.11282 2.61282C3.08175 3.6439 2.50173 5.04184 2.5 6.5C2.5 11.2061 7.5 14.7607 7.71289 14.9097C7.79709 14.9685 7.8973 15 8 15C8.1027 15 8.20291 14.9685 8.28711 14.9097C8.5 14.7607 13.5 11.2061 13.5 6.5C13.4983 5.04184 12.9183 3.6439 11.8872 2.61282C10.8561 1.58175 9.45816 1.00173 8 1ZM8.00037 4.50018C8.39593 4.50018 8.78261 4.61748 9.11151 4.83724C9.4404 5.057 9.69675 5.36936 9.84813 5.73481C9.9995 6.10027 10.0391 6.5024 9.96194 6.89036C9.88477 7.27832 9.69428 7.63469 9.41458 7.91439C9.13487 8.1941 8.77851 8.38458 8.39055 8.46175C8.00258 8.53892 7.60045 8.49932 7.235 8.34794C6.86955 8.19657 6.55719 7.94022 6.33743 7.61132C6.11766 7.28242 6.00037 6.89574 6.00037 6.50018C6.00036 6.23754 6.05208 5.97746 6.15259 5.73481C6.2531 5.49215 6.40042 5.27167 6.58614 5.08595C6.77185 4.90023 6.99234 4.75291 7.23499 4.65241C7.47764 4.5519 7.73772 4.50017 8.00037 4.50018Z" fill="url(#paint0_linear_602_3795)"/>
<defs>
<linearGradient id="paint0_linear_602_3795" x1="2.5" y1="15" x2="14.0259" y2="14.5528" gradientUnits="userSpaceOnUse">
<stop stop-color="#D4AD5D"/>
<stop offset="1" stop-color="#9D7637"/>
</linearGradient>
</defs>
</svg>
