<svg width="16" height="16" viewBox="0 0 16 16" fill="none" xmlns="http://www.w3.org/2000/svg">
<path d="M13.8732 9.90167L10.9459 8.64709C10.793 8.5813 10.6261 8.5548 10.4604 8.57003C10.2947 8.58525 10.1355 8.64171 9.99719 8.73425L8.432 9.77759C7.47541 9.31233 6.70117 8.5415 6.23169 7.58698L6.23181 7.58685L7.27148 5.99823C7.36198 5.86031 7.41689 5.70212 7.43129 5.53779C7.44569 5.37346 7.41913 5.20813 7.354 5.05658L6.09827 2.12671C6.01279 1.92783 5.86519 1.76199 5.67757 1.65402C5.48994 1.54605 5.2724 1.50175 5.0575 1.52777C4.21304 1.63635 3.43699 2.04864 2.87432 2.68763C2.31166 3.32662 2.00086 4.14859 2 5C2 9.96265 6.03735 14 11 14C11.8514 13.9991 12.6734 13.6883 13.3124 13.1257C13.9514 12.563 14.3637 11.7869 14.4722 10.9424C14.4982 10.7275 14.4538 10.51 14.3459 10.3224C14.2379 10.1348 14.0721 9.98719 13.8732 9.90167Z" fill="url(#paint0_linear_602_3789)"/>
<defs>
<linearGradient id="paint0_linear_602_3789" x1="2" y1="14" x2="15.0639" y2="13.3549" gradientUnits="userSpaceOnUse">
<stop stop-color="#D4AD5D"/>
<stop offset="1" stop-color="#9D7637"/>
</linearGradient>
</defs>
</svg>
