<svg width="14" height="18" viewBox="0 0 14 18" fill="none" xmlns="http://www.w3.org/2000/svg">
<path d="M7 0.25C5.1773 0.252163 3.42987 0.977185 2.14103 2.26603C0.852185 3.55487 0.127163 5.3023 0.125 7.125C0.125 13.0076 6.375 17.4509 6.64111 17.6371C6.74636 17.7106 6.87163 17.75 7 17.75C7.12837 17.75 7.25364 17.7106 7.35889 17.6371C7.625 17.4509 13.875 13.0076 13.875 7.125C13.8728 5.3023 13.1478 3.55487 11.859 2.26603C10.5701 0.977185 8.8227 0.252162 7 0.25ZM7.00046 4.62523C7.49491 4.62523 7.97826 4.77185 8.38938 5.04655C8.80051 5.32126 9.12094 5.7117 9.31016 6.16852C9.49938 6.62533 9.54888 7.128 9.45242 7.61295C9.35596 8.0979 9.11786 8.54336 8.76822 8.89299C8.41859 9.24263 7.97314 9.48073 7.48818 9.57719C7.00323 9.67365 6.50056 9.62414 6.04375 9.43493C5.58693 9.24571 5.19649 8.92527 4.92178 8.51415C4.64708 8.10303 4.50046 7.61968 4.50046 7.12523C4.50045 6.79692 4.56511 6.47183 4.69074 6.16851C4.81637 5.86519 5.00052 5.58959 5.23267 5.35744C5.46482 5.12529 5.74042 4.94114 6.04374 4.81551C6.34706 4.68988 6.67215 4.62522 7.00046 4.62523Z" fill="#C29442"/>
</svg>
