<svg width="140" height="49" viewBox="0 0 140 49" fill="none" xmlns="http://www.w3.org/2000/svg">
<path d="M121.053 48.12C117.232 47.1079 114.219 46.07 114.661 45.9181C114.908 45.8329 115.382 45.8863 115.713 46.0367C116.045 46.187 116.711 46.3476 117.193 46.3936C117.675 46.4395 119.728 46.7456 121.754 47.0737C128.3 48.1335 134.337 47.2869 137.494 44.8665C138.581 44.0329 138.654 43.854 138.447 42.5457C138.198 40.973 136.736 38.5846 134.053 35.3686C131.842 32.7185 128.704 27.9857 127.393 25.3263C126.054 22.608 125.136 18.5704 125.348 16.3333L125.519 14.5381L119.96 20.1659C116.903 23.2612 114.398 25.971 114.394 26.1878C114.382 26.7576 111.103 31.6823 110.123 32.6015C109.221 33.4476 108.194 33.4846 107.707 32.6884C107.253 31.9469 108.82 29.4652 111.26 27.0594C113.46 24.8907 113.638 24.403 112.816 22.7973C112.324 21.8343 112.23 21.8023 110.841 22.1178C109.15 22.5017 108.357 22.8938 107.113 23.9606C106.205 24.7399 105.607 25.378 101.909 29.5173C99.335 32.3977 98.3654 33.1859 97.709 32.9313C96.9562 32.6394 97.0721 30.3482 97.9356 28.4534C98.8511 26.4444 99.6404 23.8912 99.6453 22.9229C99.6554 20.9727 96.5073 20.4536 91.9311 21.651L89.6517 22.2474L89.4232 23.8432C89.1709 25.6046 87.9145 29.0405 87.2186 29.8719C86.9737 30.1645 86.6744 30.6855 86.5536 31.0298C86.4327 31.374 85.9247 31.8129 85.4247 32.005C82.5873 33.0953 80.9254 31.7037 81.1133 28.3948C81.2137 26.6258 81.1623 26.4305 80.7018 26.8299C79.7709 27.637 76.7122 29.1171 75.1283 29.5269C73.3894 29.9768 72.2234 29.7769 70.859 28.7949C70.343 28.4236 69.8118 28.2298 69.6787 28.3644C69.5455 28.499 69.5507 28.3085 69.6902 27.9411C69.8484 27.5245 69.8103 27.3566 69.5889 27.4948C69.3937 27.6168 68.702 27.1617 68.0517 26.4837L66.8695 25.2508L66.0547 28.182C64.8136 32.6466 64.1562 33.7538 63.2151 32.9643C62.8228 32.6353 62.7716 31.8725 62.9641 29.2219C63.3549 23.8416 64.9313 17.4392 67.0598 12.5876C67.4225 11.7608 67.7193 11.0172 67.7193 10.9353C67.7193 10.8534 67.0483 11.1219 66.2281 11.532C60.8276 14.2327 56.7294 14.2184 54.5179 11.4913L53.7725 10.5722L53.4752 11.7996C53.3117 12.4747 53.1521 13.1866 53.1207 13.3816C53.0892 13.5767 53.0255 13.8559 52.9791 14.0022C52.8188 14.5079 52.7636 14.8079 52.4898 16.662C52.3079 17.8935 52.0479 18.5237 51.7215 18.5237C51.4501 18.5237 51.2281 18.3642 51.2281 18.1691C51.2281 17.9741 51.3953 17.8145 51.5997 17.8145C51.8041 17.8145 51.8725 17.6529 51.7518 17.4555C51.4483 16.9593 52.2249 12.0074 52.8392 10.5214C53.4418 9.06385 53.9775 8.99375 55.1143 10.2236C57.0497 12.3175 59.5082 12.6694 63.2442 11.3874C66.8273 10.1578 68.5556 8.95106 69.477 7.0355C69.7683 6.42991 70.1454 5.98794 70.315 6.05336C70.753 6.22235 71.2415 5.32523 71.0555 4.69322C70.836 3.94708 72.6826 0.647953 73.3974 0.509348C73.7221 0.446325 74.154 0.708741 74.3571 1.09237C74.8442 2.01224 73.8678 4.26692 71.8384 6.90829C70.5385 8.60019 69.4736 10.6094 68.4074 13.3816C66.3363 18.7669 65.2284 22.7075 64.5747 27.0141C64.1594 29.7496 64.3696 30.2525 64.9738 27.9691C65.213 27.0652 65.5289 26.3256 65.6758 26.3256C65.8227 26.3256 65.8598 26.1068 65.7583 25.8394C65.6568 25.572 65.8122 25.1122 66.1035 24.8177C66.3949 24.5232 66.5614 24.2096 66.4736 24.1209C66.3859 24.0322 66.6301 23.031 67.0165 21.896C67.7097 19.8595 68.9561 17.8907 70.3421 16.6427C70.9485 16.0966 73.0326 14.9775 73.443 14.9775C73.7676 14.9775 75.3904 16.6474 75.7466 17.3479C76.2137 18.2668 76.2681 20.1753 75.8348 20.4459C75.6667 20.5509 75.4394 21.0909 75.3295 21.646C75.1011 22.8005 72.2402 26.1782 71.2112 26.5083C70.6548 26.6868 70.6091 26.8146 70.9711 27.1804C71.7519 27.9696 72.903 28.4534 73.9998 28.4534C75.2246 28.4534 78.1536 27.5143 78.8077 26.9119C79.0519 26.6869 79.9108 26.0241 80.7163 25.439C82.4753 24.1613 84.5311 21.3608 83.7101 21.3608C82.7394 21.3608 81.4189 17.8175 82.0428 16.887C83.0365 15.4049 86.1575 14.8338 87.617 15.867C88.6356 16.5881 89.4737 18.3721 89.4737 19.8194C89.4737 21.1769 89.5467 21.1989 91.6095 20.4633C92.4468 20.1647 94.2668 19.8235 95.6541 19.705C97.8893 19.514 98.2998 19.5783 99.2612 20.2702C99.8579 20.6996 100.488 20.9624 100.661 20.8541C101.313 20.4473 100.772 25.1094 99.9242 27.215C98.1673 31.577 98.2828 31.7514 101.032 28.8889C102.394 27.4706 103.509 26.1884 103.509 26.0398C103.509 25.8911 104.338 24.9527 105.351 23.9545C107.409 21.9271 110.014 20.5806 111.879 20.5806C113.088 20.5806 113.273 20.7209 114.545 22.602C114.999 23.2736 115.279 23.057 119.807 18.5237C125.247 13.077 126.802 11.1233 127.786 8.49455C128.591 6.3456 129.329 5.40248 130.206 5.40248C131.831 5.40248 130.893 8.5579 128.634 10.6909C127.921 11.3647 127.814 11.6515 128.134 12.0408C128.45 12.4254 128.431 12.511 128.047 12.4264C127.694 12.3484 127.41 13.0408 127.044 14.8758C126.145 19.3762 127.339 23.31 131.544 29.6946C132.7 31.45 134.363 33.7639 135.239 34.8367C138.313 38.5989 140 41.4969 140 43.0155C140 44.6689 135.509 48.4818 134.387 47.781C134.226 47.6808 134.042 47.7597 133.977 47.9562C133.772 48.5785 123.285 48.7114 121.053 48.12L121.053 48.12ZM109.825 30.9358C109.825 30.7407 109.755 30.5812 109.67 30.5812C109.585 30.5812 109.418 30.7407 109.298 30.9358C109.179 31.1308 109.249 31.2904 109.453 31.2904C109.657 31.2904 109.825 31.1308 109.825 30.9358ZM85.7386 29.7235C86.8312 28.5864 87.7517 26.3666 88.2874 23.5772L88.5088 22.4247L86.9737 22.4303C86.1294 22.4337 85.2733 22.553 85.0712 22.6963C84.2559 23.2745 82.6682 27.2426 82.7196 28.5734C82.8197 31.1613 83.9453 31.5901 85.7386 29.7237V29.7235ZM110.66 29.6762C110.78 29.3606 110.721 29.2183 110.522 29.3425C110.332 29.4617 110.175 29.7093 110.175 29.8929C110.175 30.403 110.427 30.2906 110.66 29.6762ZM71.7441 24.1092C73.5308 22.3119 74.386 20.7317 74.386 19.2274C74.386 16.2867 72.6865 15.94 70.3505 18.4041C69.4884 19.3134 68.691 20.3507 68.5784 20.7091C68.4659 21.0676 68.2265 21.3608 68.0465 21.3608C67.6583 21.3608 67.6017 22.6674 67.9825 22.8385C68.1272 22.9035 68.5194 23.5551 68.854 24.2865C69.1886 25.0179 69.6387 25.6164 69.8541 25.6164C70.0696 25.6164 70.9201 24.9381 71.7442 24.1092H71.7441ZM88.2981 20.023C88.0753 18.6355 87.2198 17.1615 86.4681 16.8699C86.1885 16.7614 85.4256 16.774 84.7729 16.8978C83.42 17.1543 83.0161 18.0171 83.6521 19.2918C83.9898 19.9687 84.296 20.0992 85.3307 20.0073C86.0268 19.9455 86.7004 20.0653 86.8276 20.2733C86.9549 20.4814 86.8523 20.6628 86.5997 20.6765C86.0164 20.7082 87.3398 21.2427 88.0014 21.2427C88.3666 21.2427 88.4433 20.9275 88.2981 20.0231V20.023ZM111.93 45.121C111.93 44.9259 112.088 44.7664 112.281 44.7664C112.474 44.7664 112.632 44.9259 112.632 45.121C112.632 45.316 112.474 45.4756 112.281 45.4756C112.088 45.4756 111.93 45.316 111.93 45.121ZM52.0716 37.0477C51.4947 36.6569 51.2201 35.1447 51.1901 32.1933C51.1635 29.5886 51.139 29.5185 49.8398 28.3322C47.6084 26.2947 43.4886 25.3644 39.9123 26.0906C38.718 26.3331 38.5973 26.4627 38.6049 27.4942C38.6095 28.1193 38.7584 29.2636 38.9359 30.0371C39.1366 30.9121 39.1326 31.5968 38.9252 31.8493C38.4639 32.4111 36.903 32.0539 35.4386 31.0514L34.2105 30.2107L34.0995 31.1052C34.0384 31.5972 33.788 31.9997 33.5429 31.9997C33.2269 31.9997 33.1391 31.5286 33.2408 30.3788L33.3843 28.7579L32.565 29.3005C30.5068 30.6635 24.1235 31.3315 21.9899 30.4072C21.4042 30.1535 21.3565 30.3116 21.4438 32.216C21.521 33.9013 21.4309 34.3239 20.9751 34.4126C20.3476 34.5348 20.2033 34.1739 19.672 31.1547C19.4549 29.9214 19.0524 28.8786 18.6875 28.6042C18.0258 28.1066 17.9963 28.147 16.778 31.212C16.0715 32.9894 13.9742 34.2172 11.604 34.241C9.2855 34.2643 7.50135 33.4372 4.97151 31.1663C4.02966 30.3209 2.95929 29.4045 2.59292 29.1299C1.7355 28.4874 0 25.7906 0 25.1008C0 24.6776 0.182387 24.6401 0.900036 24.9159C2.28437 25.4479 3.19353 25.3303 4.91228 24.3972C5.7807 23.9258 7.2807 23.1229 8.24561 22.613C10.2535 21.5521 10.477 21.415 13.8379 19.1841C17.5006 16.7529 17.4781 16.7891 18.4836 11.6972C18.5895 11.1608 18.7911 10.7219 18.9316 10.7219C19.0722 10.7219 19.3714 10.1235 19.5966 9.3921C20.1121 7.71758 21.4725 6.70633 23.3101 6.6316C24.0948 6.59969 25.0238 6.44848 25.3745 6.29559C26.2819 5.89997 26.8303 6.55857 26.3495 7.46653C26.1394 7.86344 26.0607 8.479 26.1747 8.83446C26.3283 9.31325 26.2947 9.35749 26.0453 9.00516C25.1861 7.79174 21.9577 21.6817 21.9386 26.6736L21.9298 28.9721L23.8064 29.4827C25.2877 29.8857 26.1748 29.9149 28.017 29.6213C32.889 28.845 33.6733 28.3776 33.7093 26.2288C33.7231 25.4044 33.7722 22.1765 33.8183 19.0557C33.8819 14.7609 34.0664 12.7783 34.5773 10.8993C34.9485 9.53396 35.3337 8.33707 35.4331 8.23955C35.5326 8.14202 35.9097 7.47403 36.2712 6.7551C37.1723 4.96282 38.8487 3.29414 40.5263 2.51972C42.4141 1.64822 43.0994 1.6933 43.562 2.71944C43.9853 3.65841 43.8593 3.92999 41.4034 7.37116C40.0559 9.25933 37.6065 11.7858 37.1235 11.7858C36.6706 11.7858 37.5069 10.3594 38.0931 10.132C38.3699 10.0247 38.5964 9.72591 38.5964 9.46815C38.5964 9.21038 38.8025 8.7886 39.0543 8.53086C39.9527 7.6114 42.5154 3.57113 42.3233 3.377C42.0657 3.11662 40.3619 3.85854 39.4659 4.62128C38.2281 5.67506 37.2757 7.30621 36.3091 10.0284C35.4554 12.4322 35.3493 13.3089 35.1412 19.6768C35.0153 23.5292 34.98 26.681 35.0628 26.6807C35.9488 26.6785 37.4974 25.6858 37.8414 24.9004C38.8152 22.6769 40.8848 21.3612 43.4097 21.3604C44.2987 21.3601 45.0553 21.0831 45.7017 20.5212C46.6126 19.7294 46.6666 19.5149 46.6666 16.6885C46.6666 14.4851 46.8131 13.5128 47.2216 13.0062C47.7173 12.3912 47.7552 12.386 47.5765 12.9568C47.455 13.3449 47.5182 13.5073 47.7375 13.3703C47.9362 13.2462 48.0084 12.8573 47.8981 12.506C47.6339 11.6647 48.2655 10.3419 49.3001 9.56972C49.9411 9.09127 50.3359 9.02808 51.0264 9.2934C51.8408 9.60635 51.908 9.78324 51.7716 11.2541C51.6049 13.0515 50.1477 16.2283 48.8323 17.6621L47.9754 18.5961L48.5962 21.5858C48.9376 23.2301 49.1118 24.6818 48.9832 24.8118C48.8545 24.9418 47.7158 24.533 46.4525 23.9034L44.1557 22.7587L42.7709 23.788L41.3861 24.8173L44.2895 24.9783C47.2032 25.1399 49.3499 25.8967 50.6651 27.2259C51.1817 27.7481 51.2312 27.4939 51.2668 24.1346C51.2882 22.1214 51.2769 20.1152 51.2418 19.6764C51.2066 19.2375 51.3342 18.8785 51.5254 18.8785C51.7259 18.8785 51.8776 20.116 51.8838 21.8041C51.8894 23.4133 51.9106 24.8096 51.9302 24.9072C51.9497 25.0047 52.0063 25.9957 52.0561 27.1094C52.1168 28.4709 52.356 29.3683 52.7861 29.8486C53.9268 31.1225 53.8784 37.3367 52.728 37.3137C52.5785 37.3103 52.2831 37.1911 52.0716 37.0478V37.0477ZM13.8955 32.5489C14.4569 32.2658 15.171 31.5876 15.4824 31.0417C16.067 30.0167 16.9002 25.1872 16.8161 23.3113C16.7898 22.7261 16.8886 21.3039 17.0357 20.1507L17.3029 18.054L14.8796 19.7704C13.5467 20.7145 12.2193 21.6834 11.9299 21.9235C11.0905 22.6199 8.01122 24.1978 7.49163 24.1978C7.2309 24.1978 7.01758 24.3325 7.01758 24.4971C7.01758 24.6617 5.83565 25.1752 4.39107 25.6381L1.76456 26.4797L2.84272 27.604C3.49335 28.2825 3.76614 28.8039 3.53064 28.9189C3.30751 29.0278 3.33197 29.0631 3.58775 29.0012C3.83381 28.9417 4.66747 29.507 5.44033 30.2575C8.11306 32.8529 11.4818 33.7658 13.8955 32.5489ZM37.5352 30.0261C37.347 29.5258 37.193 28.7279 37.193 28.253C37.193 27.7781 37.1062 27.3895 37.0001 27.3895C36.5841 27.3895 34.7374 28.4864 34.7458 28.7285C34.7559 29.0171 37.2278 30.9023 37.6229 30.9227C37.7629 30.9294 37.7234 30.5264 37.5352 30.0261H37.5352ZM20.8959 22.2474C21.0263 21.0771 21.5672 18.4041 22.0979 16.3073C22.6286 14.2106 23.0313 12.4951 22.9927 12.4951C22.7504 12.4951 19.6492 15.8169 19.6492 16.0764C19.6492 16.2522 19.5165 16.396 19.3545 16.396C19.1924 16.396 18.8606 17.5225 18.6171 18.8994C18.2307 21.0851 18.2437 21.4801 18.7197 22.0117C19.0196 22.3467 19.4699 23.7203 19.7202 25.0642L20.1755 27.5078L20.4171 25.9415C20.55 25.08 20.7655 23.4177 20.8959 22.2474H20.8959ZM18.7775 25.2871C18.6473 24.688 18.3954 24.1978 18.2178 24.1978C17.7846 24.1978 17.8109 24.6878 18.3026 25.7785C18.8284 26.9446 19.0809 26.6833 18.7775 25.2871H18.7775ZM41.4912 23.9661C41.829 23.853 42.1053 23.6312 42.1053 23.4732C42.1053 23.3152 42.3816 23.113 42.7193 23.0238C43.152 22.9095 43.084 22.8494 42.4893 22.8204C41.597 22.777 39.2983 24.3243 39.2983 24.9684C39.2983 25.1773 39.6535 25.0835 40.0877 24.76C40.522 24.4365 41.1535 24.0792 41.4912 23.9661ZM47.5433 22.6907C47.4585 22.4469 47.223 21.7884 47.0198 21.2274L46.6504 20.2074L45.9624 21.0091L45.2745 21.8107L46.4092 22.452C47.8033 23.2398 47.7286 23.2241 47.5433 22.6907ZM49.2602 15.3394C49.8367 14.6505 51.0233 10.7514 50.7428 10.4678C50.418 10.1396 49.1228 11.4642 49.1228 12.1245C49.1228 12.4453 48.9784 12.8595 48.8019 13.0448C48.6253 13.2301 48.3864 14.3391 48.2708 15.5094C48.1044 17.1948 48.1385 17.4544 48.4348 16.7579C48.6406 16.2743 49.012 15.636 49.2602 15.3394ZM21.9299 12.0331C23.5926 9.89655 24.5618 7.94389 24.3008 7.25643C24.1937 6.97427 24.0208 6.90955 23.8986 7.10583C23.7807 7.2952 23.1316 7.75939 22.4562 8.13739C21.2513 8.81169 20.1587 10.8295 19.455 13.6796C19.2272 14.6021 19.2618 14.6511 19.8663 14.2618C20.2293 14.0279 21.1579 13.0251 21.9299 12.0331ZM70.3509 5.04786C70.4702 4.85281 70.6374 4.69324 70.7225 4.69324C70.8075 4.69324 70.8772 4.85281 70.8772 5.04786C70.8772 5.24291 70.71 5.4025 70.5056 5.4025C70.3012 5.4025 70.2316 5.24291 70.3509 5.04786Z" fill="#C29442"/>
</svg>
